<?xml version="1.0" encoding="utf-8"?>
<!-- Generator: Adobe Illustrator 23.1.0, SVG Export Plug-In . SVG Version: 6.00 Build 0)  -->
<svg version="1.1" id="Capa_1" xmlns="http://www.w3.org/2000/svg" xmlns:xlink="http://www.w3.org/1999/xlink" x="0px" y="0px"
	 viewBox="0 0 512 512" style="enable-background:new 0 0 512 512;" xml:space="preserve">
<style type="text/css">
	.st0{fill:#FFFFFF;}
</style>
<g>
	<g>
		<path class="st0" d="M333.6,12.1c-0.3-0.1-0.6-0.2-0.9-0.3C308.5,4.1,282.7,0,256,0C140.9,0,43.4,76.3,11.3,181
			c-0.1,0.4-0.2,0.7-0.3,1.1C3.9,205.5,0,230.3,0,256c0,66.1,25.4,126.3,66.7,171.8c0.7,1.3,1.7,2.3,2.9,3.2
			c46.7,49.7,112.9,81,186.4,81c129.7,0,237-97.1,253.5-222.4c0.3-0.8,0.3-1.6,0.4-2.5c1.3-10.2,2.1-20.6,2.1-31.1
			C512,141.9,436.9,45.1,333.6,12.1z M256,490.7c-66.4,0-126.4-27.9-169.1-72.4c1.6-16.3,5.7-66-2.1-90.8
			c-3.9-12.3-12.2-20.6-19.6-28c-5.3-5.3-10.3-10.2-12.9-16c-6.2-13.2-15.2-65-20.1-98.2C62.4,90.3,151.3,21.3,256,21.3
			c17.7,0,34.9,2.1,51.5,5.9c-6.3,7.8-11.3,16.4-14.5,23.1c-12.4-4.6-29.8-9.7-39.6-7.3c-16.1,4-32.8,24.7-48.7,46.8
			c-2.4,3.3-5.7,10-8.3,15.5c-12-0.9-24.1,4.5-33.9,15c-9.6,10.3-16.9,26.2-11.6,38.6c3.3,7.5,10.5,11.8,19.8,11.8
			c9.8,0,18.9-5.4,28.7-11.1c8.6-5,17.4-10.2,24.8-10.3c38.5-0.8,58.2,8.9,64,17.8c1.6,2.4,2.1,4.8,1.6,7.3
			c-7.7,1.5-29.7-0.8-44.7-2.3c-25.2-2.5-51.3-5.1-66.5-1.1c-18.9,5-29.9,18-48.9,47.1c-8.5,13.1-6.2,40.4-0.9,52.7
			c3.6,8.5,16.6,23.7,27.9,27.3c9.2,2.9,21,1.3,33.6-0.5c9.5-1.3,23.8-3.3,27.9-0.7c9.8,6.3,16.4,32.7,16.4,65.6
			c-0.1,1.8-2.7,6.9-4.2,10c-3.9,7.9-7.9,16.2-6.3,24.2c6.6,32.4,31.1,51.3,51.3,51.3c0.9,0,1.9,0,2.8-0.1
			c29.5-2.6,78-40.6,84.2-72.6c1.5-7.9,0.8-19.7,0-32.2c-0.7-11.6-1.5-24.8-0.1-31.6s12.6-27.1,20-39.3c2.7-4.4,1.9-10-2-13.5
			c-6.7-6-17.2-16.1-19.8-19.6c-2.4-3.4-6.5-11.2-10.5-19.6c3.2,1.1,5.7,2.2,6.9,2.9c12,7.4,40.8,39.5,50.9,51.2
			c2.5,2.9,6.3,4.3,10.2,3.5c15.9-3.1,17.9-19.5,19.2-30.3c0.5-3.9,1.4-11.1,2.5-12.5c8.7-2,20,15.6,29,29.9
			c6.2,9.9,12.2,19.2,19,26C471.2,403.5,373.7,490.7,256,490.7z"/>
	</g>
</g>
</svg>
